<?xml version="1.0" standalone="no"?>
<!DOCTYPE svg PUBLIC "-//W3C//DTD SVG 20010904//EN"
 "http://www.w3.org/TR/2001/REC-SVG-20010904/DTD/svg10.dtd">
<svg version="1.0" xmlns="http://www.w3.org/2000/svg"
 width="700.000000pt" height="700.000000pt" viewBox="0 0 700.000000 700.000000"
 preserveAspectRatio="xMidYMid meet">
<metadata>
Created by potrace 1.11, written by Peter Selinger 2001-2013
</metadata>
<g transform="translate(0.000000,700.000000) scale(0.100000,-0.100000)"
fill="#000000" stroke="none">
<path d="M1095 6984 c-204 -32 -414 -122 -584 -250 -268 -201 -445 -502 -496
-844 -13 -81 -15 -440 -15 -2380 0 -1520 3 -2314 10 -2370 57 -459 351 -851
778 -1036 96 -41 241 -80 352 -94 117 -14 4603 -14 4720 0 494 61 915 402
1070 868 16 48 37 125 47 172 17 81 18 203 18 2450 0 2247 -1 2369 -18 2450
-102 477 -421 837 -870 985 -211 69 -65 65 -2618 64 -1917 -1 -2319 -3 -2394
-15z m1653 -1942 l2 -792 78 54 c146 102 308 168 522 213 120 25 476 25 604 0
266 -54 467 -158 647 -337 201 -200 327 -470 374 -803 12 -84 15 -280 15
-1089 l0 -988 -425 0 -424 0 -3 983 -3 982 -27 73 c-40 111 -84 178 -178 273
-72 74 -99 93 -180 132 -115 55 -185 71 -310 70 -120 0 -199 -20 -320 -80
-173 -86 -310 -254 -354 -434 -14 -58 -16 -176 -16 -1032 l0 -967 -425 0 -425
0 0 2270 0 2270 423 -2 422 -3 3 -793z"/>
</g>
</svg>
