<svg width="205" height="86" viewBox="0 0 205 86" fill="none" xmlns="http://www.w3.org/2000/svg">
<g filter="url(#filter0_i)">
<path d="M0.85 66V0.299998H13.18V23.34C15.1 21.78 17.17 20.67 19.39 20.01C21.61 19.35 23.8 19.02 25.96 19.02C30.4 19.02 34.06 19.95 36.94 21.81C39.88 23.67 42.07 26.16 43.51 29.28C44.95 32.4 45.67 35.85 45.67 39.63V66H33.34V39.63C33.34 37.77 32.89 36.09 31.99 34.59C31.09 33.03 29.86 31.8 28.3 30.9C26.8 30 25.12 29.55 23.26 29.55C21.46 29.55 19.78 30 18.22 30.9C16.72 31.74 15.49 32.91 14.53 34.41C13.63 35.85 13.18 37.47 13.18 39.27V66H0.85ZM74.9137 67.08C70.1737 67.08 65.9437 66.03 62.2237 63.93C58.5037 61.77 55.5637 58.89 53.4037 55.29C51.2437 51.63 50.1637 47.55 50.1637 43.05C50.1637 38.55 51.2437 34.5 53.4037 30.9C55.5637 27.24 58.5037 24.36 62.2237 22.26C65.9437 20.1 70.1737 19.02 74.9137 19.02C79.6537 19.02 83.8837 20.1 87.6037 22.26C91.3237 24.36 94.2637 27.24 96.4237 30.9C98.5837 34.5 99.6637 38.55 99.6637 43.05C99.6637 47.55 98.5837 51.63 96.4237 55.29C94.2637 58.89 91.3237 61.77 87.6037 63.93C83.8837 66.03 79.6537 67.08 74.9137 67.08ZM74.9137 56.55C77.4337 56.55 79.5937 55.95 81.3937 54.75C83.2537 53.55 84.6637 51.93 85.6237 49.89C86.6437 47.85 87.1537 45.57 87.1537 43.05C87.1537 40.53 86.6437 38.25 85.6237 36.21C84.6637 34.17 83.2537 32.55 81.3937 31.35C79.5937 30.15 77.4337 29.55 74.9137 29.55C72.3937 29.55 70.2037 30.15 68.3437 31.35C66.5437 32.55 65.1337 34.17 64.1137 36.21C63.1537 38.25 62.6737 40.53 62.6737 43.05C62.6737 45.57 63.1537 47.85 64.1137 49.89C65.1337 51.93 66.5437 53.55 68.3437 54.75C70.2037 55.95 72.3937 56.55 74.9137 56.55ZM126.584 67.08C121.904 67.08 117.884 66.15 114.524 64.29C111.164 62.43 108.584 59.94 106.784 56.82C105.044 53.7 104.174 50.25 104.174 46.47V20.1H116.504V46.47C116.504 48.33 116.954 50.04 117.854 51.6C118.754 53.1 119.954 54.3 121.454 55.2C123.014 56.1 124.724 56.55 126.584 56.55C128.444 56.55 130.124 56.1 131.624 55.2C133.184 54.3 134.414 53.1 135.314 51.6C136.214 50.04 136.664 48.33 136.664 46.47V20.1H148.994V46.47C148.994 50.25 148.094 53.7 146.294 56.82C144.554 59.94 142.004 62.43 138.644 64.29C135.344 66.15 131.324 67.08 126.584 67.08ZM179.948 19.02C175.028 19.02 170.738 20.04 167.078 22.08C163.478 24.12 160.688 27.03 158.708 30.81C156.728 34.53 155.738 38.91 155.738 43.95V85.8H168.068V60.33H168.158C169.118 61.71 170.288 62.91 171.668 63.93C173.108 64.95 174.698 65.73 176.438 66.27C178.238 66.81 180.098 67.08 182.018 67.08C186.518 67.08 190.418 66.09 193.718 64.11C197.018 62.13 199.568 59.43 201.368 56.01C203.228 52.53 204.158 48.51 204.158 43.95C204.158 40.35 203.618 37.05 202.538 34.05C201.458 30.99 199.898 28.35 197.858 26.13C195.818 23.85 193.298 22.11 190.298 20.91C187.298 19.65 183.848 19.02 179.948 19.02ZM179.948 29.55C182.408 29.55 184.508 30.15 186.248 31.35C187.988 32.55 189.308 34.17 190.208 36.21C191.168 38.25 191.648 40.53 191.648 43.05C191.648 45.57 191.168 47.85 190.208 49.89C189.308 51.93 187.988 53.55 186.248 54.75C184.508 55.95 182.408 56.55 179.948 56.55C177.548 56.55 175.448 55.95 173.648 54.75C171.908 53.55 170.558 51.93 169.598 49.89C168.698 47.85 168.248 45.57 168.248 43.05C168.248 40.53 168.698 38.25 169.598 36.21C170.558 34.17 171.908 32.55 173.648 31.35C175.448 30.15 177.548 29.55 179.948 29.55Z" fill="white"/>
</g>
<defs>
<filter id="filter0_i" x="0.850006" y="0.300049" width="205.308" height="87.5" filterUnits="userSpaceOnUse" color-interpolation-filters="sRGB">
<feFlood flood-opacity="0" result="BackgroundImageFix"/>
<feBlend mode="normal" in="SourceGraphic" in2="BackgroundImageFix" result="shape"/>
<feColorMatrix in="SourceAlpha" type="matrix" values="0 0 0 0 0 0 0 0 0 0 0 0 0 0 0 0 0 0 127 0" result="hardAlpha"/>
<feOffset dx="2" dy="3"/>
<feGaussianBlur stdDeviation="1"/>
<feComposite in2="hardAlpha" operator="arithmetic" k2="-1" k3="1"/>
<feColorMatrix type="matrix" values="0 0 0 0 0 0 0 0 0 0 0 0 0 0 0 0 0 0 0.33 0"/>
<feBlend mode="normal" in2="shape" result="effect1_innerShadow"/>
</filter>
</defs>
</svg>
